<svg width="40" height="40" viewBox="0 0 40 40" fill="none" xmlns="http://www.w3.org/2000/svg">
<path fill-rule="evenodd" clip-rule="evenodd" d="M28.3333 10H13.3333C12.4493 10 11.6014 10.3512 10.9763 10.9763C10.3512 11.6014 10 12.4493 10 13.3333V31.6667C10 32.5507 10.3512 33.3986 10.9763 34.0237C11.6014 34.6488 12.4493 35 13.3333 35H31.6667C33.5 35 35 33.5 35 31.6667V16.6667L28.3333 10ZM13.3333 15.8333C13.3333 15.1703 13.5967 14.5344 14.0656 14.0656C14.5344 13.5967 15.1703 13.3333 15.8333 13.3333H22.5C23.163 13.3333 23.7989 13.5967 24.2678 14.0656C24.7366 14.5344 25 15.1703 25 15.8333C25 16.4964 24.7366 17.1323 24.2678 17.6011C23.7989 18.0699 23.163 18.3333 22.5 18.3333H15.8333C15.1703 18.3333 14.5344 18.0699 14.0656 17.6011C13.5967 17.1323 13.3333 16.4964 13.3333 15.8333ZM22.5 31.6667C23.6051 31.6667 24.6649 31.2277 25.4463 30.4463C26.2277 29.6649 26.6667 28.6051 26.6667 27.5C26.6667 26.3949 26.2277 25.3351 25.4463 24.5537C24.6649 23.7723 23.6051 23.3333 22.5 23.3333C21.3949 23.3333 20.3351 23.7723 19.5537 24.5537C18.7723 25.3351 18.3333 26.3949 18.3333 27.5C18.3333 28.6051 18.7723 29.6649 19.5537 30.4463C20.3351 31.2277 21.3949 31.6667 22.5 31.6667Z" fill="#06549C"/>
<path d="M3.33337 6.66634C3.33337 5.78229 3.68456 4.93444 4.30968 4.30932C4.93481 3.6842 5.78265 3.33301 6.66671 3.33301H21.6667C22.1087 3.33301 22.5327 3.5086 22.8452 3.82116C23.1578 4.13372 23.3334 4.55765 23.3334 4.99967C23.3334 5.4417 23.1578 5.86563 22.8452 6.17819C22.5327 6.49075 22.1087 6.66634 21.6667 6.66634H8.33337C7.89135 6.66634 7.46742 6.84194 7.15486 7.1545C6.8423 7.46706 6.66671 7.89098 6.66671 8.33301V21.6663C6.66671 22.1084 6.49111 22.5323 6.17855 22.8449C5.86599 23.1574 5.44207 23.333 5.00004 23.333C4.55801 23.333 4.13409 23.1574 3.82153 22.8449C3.50897 22.5323 3.33337 22.1084 3.33337 21.6663V6.66634Z" fill="#06549C"/>
</svg>
