<svg width="35" height="32" viewBox="0 0 35 32" fill="none" xmlns="http://www.w3.org/2000/svg">
<g filter="url(#filter0_d_37_7162)">
<rect x="4" y="4" width="27" height="24.6176" rx="3.30882" fill="white"/>
</g>
<path fill-rule="evenodd" clip-rule="evenodd" d="M15.2846 12.3434C17.0894 12.1433 18.9107 12.1433 20.7154 12.3434C21.7147 12.4554 22.5209 13.2423 22.6381 14.2451C22.8521 16.0754 22.8521 17.9244 22.6381 19.7546C22.5788 20.2419 22.3566 20.6948 22.0076 21.04C21.6586 21.3852 21.2033 21.6023 20.7154 21.6563C18.9107 21.857 17.0893 21.857 15.2846 21.6563C14.7967 21.6023 14.3414 21.3852 13.9924 21.04C13.6434 20.6948 13.4213 20.2419 13.3619 19.7546C13.1479 17.9245 13.1479 16.0757 13.3619 14.2456C13.4212 13.7585 13.6433 13.3056 13.9922 12.9605C14.3411 12.6153 14.7963 12.3981 15.284 12.344L15.2846 12.3434ZM18 14.0876C18.1161 14.0876 18.2273 14.1337 18.3094 14.2157C18.3914 14.2977 18.4375 14.409 18.4375 14.5251V16.5626H20.4751C20.5911 16.5626 20.7024 16.6087 20.7845 16.6908C20.8665 16.7728 20.9126 16.8841 20.9126 17.0001C20.9126 17.1162 20.8665 17.2275 20.7845 17.3095C20.7024 17.3916 20.5911 17.4376 20.4751 17.4376H18.4375V19.4752C18.4375 19.5913 18.3914 19.7025 18.3094 19.7846C18.2273 19.8666 18.1161 19.9127 18 19.9127C17.884 19.9127 17.7727 19.8666 17.6907 19.7846C17.6086 19.7025 17.5625 19.5913 17.5625 19.4752V17.4376H15.5249C15.4089 17.4376 15.2976 17.3916 15.2156 17.3095C15.1335 17.2275 15.0874 17.1162 15.0874 17.0001C15.0874 16.8841 15.1335 16.7728 15.2156 16.6908C15.2976 16.6087 15.4089 16.5626 15.5249 16.5626H17.5625V14.5251C17.5625 14.409 17.6086 14.2977 17.6907 14.2157C17.7727 14.1337 17.884 14.0876 18 14.0876Z" fill="#923475"/>
<defs>
<filter id="filter0_d_37_7162" x="0.823529" y="0.823529" width="33.3529" height="30.9701" filterUnits="userSpaceOnUse" color-interpolation-filters="sRGB">
<feFlood flood-opacity="0" result="BackgroundImageFix"/>
<feColorMatrix in="SourceAlpha" type="matrix" values="0 0 0 0 0 0 0 0 0 0 0 0 0 0 0 0 0 0 127 0" result="hardAlpha"/>
<feOffset/>
<feGaussianBlur stdDeviation="1.58824"/>
<feComposite in2="hardAlpha" operator="out"/>
<feColorMatrix type="matrix" values="0 0 0 0 0 0 0 0 0 0 0 0 0 0 0 0 0 0 0.15 0"/>
<feBlend mode="normal" in2="BackgroundImageFix" result="effect1_dropShadow_37_7162"/>
<feBlend mode="normal" in="SourceGraphic" in2="effect1_dropShadow_37_7162" result="shape"/>
</filter>
</defs>
</svg>
