<svg width="35" height="32" viewBox="0 0 35 32" fill="none" xmlns="http://www.w3.org/2000/svg">
<g filter="url(#filter0_d_37_7147)">
<rect x="4" y="4" width="27" height="24.6176" rx="3.30882" fill="white"/>
</g>
<path d="M12.75 17C12.1084 17 11.5834 16.475 11.5834 15.8333V12.9167C11.5834 12.275 12.1084 11.75 12.75 11.75H17.4167C18.0584 11.75 18.5834 12.275 18.5834 12.9167V15.8333C18.5834 16.475 18.0584 17 17.4167 17H16.25V18.75L14.5 17H12.75ZM23.25 20.5C23.8917 20.5 24.4167 19.975 24.4167 19.3333V16.4167C24.4167 15.775 23.8917 15.25 23.25 15.25H19.75V15.8333C19.75 17.1167 18.7 18.1667 17.4167 18.1667V19.3333C17.4167 19.975 17.9417 20.5 18.5834 20.5H19.75V22.25L21.5 20.5H23.25Z" fill="#0283AC"/>
<defs>
<filter id="filter0_d_37_7147" x="0.823529" y="0.823529" width="33.3529" height="30.9701" filterUnits="userSpaceOnUse" color-interpolation-filters="sRGB">
<feFlood flood-opacity="0" result="BackgroundImageFix"/>
<feColorMatrix in="SourceAlpha" type="matrix" values="0 0 0 0 0 0 0 0 0 0 0 0 0 0 0 0 0 0 127 0" result="hardAlpha"/>
<feOffset/>
<feGaussianBlur stdDeviation="1.58824"/>
<feComposite in2="hardAlpha" operator="out"/>
<feColorMatrix type="matrix" values="0 0 0 0 0 0 0 0 0 0 0 0 0 0 0 0 0 0 0.15 0"/>
<feBlend mode="normal" in2="BackgroundImageFix" result="effect1_dropShadow_37_7147"/>
<feBlend mode="normal" in="SourceGraphic" in2="effect1_dropShadow_37_7147" result="shape"/>
</filter>
</defs>
</svg>
