<svg width="35" height="32" viewBox="0 0 35 32" fill="none" xmlns="http://www.w3.org/2000/svg">
<g filter="url(#filter0_d_37_7174)">
<rect x="4" y="4" width="27" height="24.6176" rx="3.30882" fill="white"/>
</g>
<path fill-rule="evenodd" clip-rule="evenodd" d="M20.9167 13.5H15.6667C15.3572 13.5 15.0605 13.6229 14.8417 13.8417C14.6229 14.0605 14.5 14.3572 14.5 14.6667V21.0833C14.5 21.3928 14.6229 21.6895 14.8417 21.9083C15.0605 22.1271 15.3572 22.25 15.6667 22.25H22.0833C22.725 22.25 23.25 21.725 23.25 21.0833V15.8333L20.9167 13.5ZM15.6667 15.5417C15.6667 15.3096 15.7589 15.087 15.9229 14.9229C16.087 14.7589 16.3096 14.6667 16.5417 14.6667H18.875C19.1071 14.6667 19.3296 14.7589 19.4937 14.9229C19.6578 15.087 19.75 15.3096 19.75 15.5417C19.75 15.7737 19.6578 15.9963 19.4937 16.1604C19.3296 16.3245 19.1071 16.4167 18.875 16.4167H16.5417C16.3096 16.4167 16.087 16.3245 15.9229 16.1604C15.7589 15.9963 15.6667 15.7737 15.6667 15.5417ZM18.875 21.0833C19.2618 21.0833 19.6327 20.9297 19.9062 20.6562C20.1797 20.3827 20.3333 20.0118 20.3333 19.625C20.3333 19.2382 20.1797 18.8673 19.9062 18.5938C19.6327 18.3203 19.2618 18.1667 18.875 18.1667C18.4882 18.1667 18.1173 18.3203 17.8438 18.5938C17.5703 18.8673 17.4167 19.2382 17.4167 19.625C17.4167 20.0118 17.5703 20.3827 17.8438 20.6562C18.1173 20.9297 18.4882 21.0833 18.875 21.0833Z" fill="#06549C"/>
<path d="M12.1666 12.3337C12.1666 12.0242 12.2895 11.7275 12.5083 11.5087C12.7271 11.2899 13.0239 11.167 13.3333 11.167H18.5833C18.738 11.167 18.8864 11.2285 18.9958 11.3378C19.1052 11.4472 19.1666 11.5956 19.1666 11.7503C19.1666 11.905 19.1052 12.0534 18.9958 12.1628C18.8864 12.2722 18.738 12.3337 18.5833 12.3337H13.9166C13.7619 12.3337 13.6135 12.3951 13.5041 12.5045C13.3948 12.6139 13.3333 12.7623 13.3333 12.917V17.5837C13.3333 17.7384 13.2718 17.8867 13.1624 17.9961C13.053 18.1055 12.9047 18.167 12.75 18.167C12.5952 18.167 12.4469 18.1055 12.3375 17.9961C12.2281 17.8867 12.1666 17.7384 12.1666 17.5837V12.3337Z" fill="#06549C"/>
<defs>
<filter id="filter0_d_37_7174" x="0.823529" y="0.823529" width="33.3529" height="30.9701" filterUnits="userSpaceOnUse" color-interpolation-filters="sRGB">
<feFlood flood-opacity="0" result="BackgroundImageFix"/>
<feColorMatrix in="SourceAlpha" type="matrix" values="0 0 0 0 0 0 0 0 0 0 0 0 0 0 0 0 0 0 127 0" result="hardAlpha"/>
<feOffset/>
<feGaussianBlur stdDeviation="1.58824"/>
<feComposite in2="hardAlpha" operator="out"/>
<feColorMatrix type="matrix" values="0 0 0 0 0 0 0 0 0 0 0 0 0 0 0 0 0 0 0.15 0"/>
<feBlend mode="normal" in2="BackgroundImageFix" result="effect1_dropShadow_37_7174"/>
<feBlend mode="normal" in="SourceGraphic" in2="effect1_dropShadow_37_7174" result="shape"/>
</filter>
</defs>
</svg>
