<svg width="26" height="29" viewBox="0 0 26 29" fill="none" xmlns="http://www.w3.org/2000/svg">
<g filter="url(#filter0_d_16_3216)">
<path d="M14 8V4C14 3.71667 14.096 3.479 14.288 3.287C14.48 3.095 14.7173 2.99934 15 3H21C21.2833 3 21.521 3.096 21.713 3.288C21.905 3.48 22.0007 3.71734 22 4V8C22 8.28334 21.904 8.521 21.712 8.713C21.52 8.905 21.2827 9.00067 21 9H15C14.7167 9 14.479 8.904 14.287 8.712C14.095 8.52 13.9993 8.28267 14 8ZM4 12V4C4 3.71667 4.096 3.479 4.288 3.287C4.48 3.095 4.71734 2.99934 5 3H11C11.2833 3 11.521 3.096 11.713 3.288C11.905 3.48 12.0007 3.71734 12 4V12C12 12.2833 11.904 12.521 11.712 12.713C11.52 12.905 11.2827 13.0007 11 13H5C4.71667 13 4.479 12.904 4.287 12.712C4.095 12.52 3.99934 12.2827 4 12ZM14 20V12C14 11.7167 14.096 11.479 14.288 11.287C14.48 11.095 14.7173 10.9993 15 11H21C21.2833 11 21.521 11.096 21.713 11.288C21.905 11.48 22.0007 11.7173 22 12V20C22 20.2833 21.904 20.521 21.712 20.713C21.52 20.905 21.2827 21.0007 21 21H15C14.7167 21 14.479 20.904 14.287 20.712C14.095 20.52 13.9993 20.2827 14 20ZM4 20V16C4 15.7167 4.096 15.479 4.288 15.287C4.48 15.095 4.71734 14.9993 5 15H11C11.2833 15 11.521 15.096 11.713 15.288C11.905 15.48 12.0007 15.7173 12 16V20C12 20.2833 11.904 20.521 11.712 20.713C11.52 20.905 11.2827 21.0007 11 21H5C4.71667 21 4.479 20.904 4.287 20.712C4.095 20.52 3.99934 20.2827 4 20ZM6 11H10V5H6V11ZM16 19H20V13H16V19ZM16 7H20V5H16V7ZM6 19H10V17H6V19Z" fill="#010C24"/>
</g>
<defs>
<filter id="filter0_d_16_3216" x="-3" y="0" width="32" height="32" filterUnits="userSpaceOnUse" color-interpolation-filters="sRGB">
<feFlood flood-opacity="0" result="BackgroundImageFix"/>
<feColorMatrix in="SourceAlpha" type="matrix" values="0 0 0 0 0 0 0 0 0 0 0 0 0 0 0 0 0 0 127 0" result="hardAlpha"/>
<feOffset dy="4"/>
<feGaussianBlur stdDeviation="2"/>
<feComposite in2="hardAlpha" operator="out"/>
<feColorMatrix type="matrix" values="0 0 0 0 0 0 0 0 0 0 0 0 0 0 0 0 0 0 0.25 0"/>
<feBlend mode="normal" in2="BackgroundImageFix" result="effect1_dropShadow_16_3216"/>
<feBlend mode="normal" in="SourceGraphic" in2="effect1_dropShadow_16_3216" result="shape"/>
</filter>
</defs>
</svg>
