<svg width="28" height="28" viewBox="0 0 28 28" fill="none" xmlns="http://www.w3.org/2000/svg">
<path fill-rule="evenodd" clip-rule="evenodd" d="M5.95196 0.428671C11.1084 -0.14289 16.3122 -0.14289 21.4686 0.428671C24.3236 0.748671 26.627 2.997 26.962 5.862C27.5735 11.0914 27.5735 16.3743 26.962 21.6037C26.7924 22.9958 26.1577 24.2899 25.1606 25.2761C24.1635 26.2623 22.8625 26.8828 21.4686 27.037C16.3123 27.6103 11.1083 27.6103 5.95196 27.037C4.55805 26.8828 3.25709 26.2623 2.26 25.2761C1.26291 24.2899 0.628148 22.9958 0.458629 21.6037C-0.152876 16.3748 -0.152876 11.0925 0.458629 5.86367C0.628075 4.47179 1.26259 3.17791 2.25935 2.19175C3.25611 1.20558 4.55668 0.584911 5.9503 0.430338L5.95196 0.428671ZM13.7103 5.412C14.0418 5.412 14.3598 5.5437 14.5942 5.77812C14.8286 6.01254 14.9603 6.33048 14.9603 6.662V12.4837H20.782C21.1135 12.4837 21.4314 12.6154 21.6658 12.8498C21.9003 13.0842 22.032 13.4022 22.032 13.7337C22.032 14.0652 21.9003 14.3831 21.6658 14.6176C21.4314 14.852 21.1135 14.9837 20.782 14.9837H14.9603V20.8053C14.9603 21.1369 14.8286 21.4548 14.5942 21.6892C14.3598 21.9236 14.0418 22.0553 13.7103 22.0553C13.3788 22.0553 13.0608 21.9236 12.8264 21.6892C12.592 21.4548 12.4603 21.1369 12.4603 20.8053V14.9837H6.63863C6.30711 14.9837 5.98917 14.852 5.75475 14.6176C5.52032 14.3831 5.38863 14.0652 5.38863 13.7337C5.38863 13.4022 5.52032 13.0842 5.75475 12.8498C5.98917 12.6154 6.30711 12.4837 6.63863 12.4837H12.4603V6.662C12.4603 6.33048 12.592 6.01254 12.8264 5.77812C13.0608 5.5437 13.3788 5.412 13.7103 5.412Z" fill="#923475"/>
</svg>
