<svg width="32" height="32" viewBox="0 0 32 32" fill="none" xmlns="http://www.w3.org/2000/svg">
<path d="M18.766 15.9746H8.22595V30.1346H18.766V15.9746Z" fill="url(#paint0_radial_44_7739)"/>
<path d="M18.766 15.9746H8.22595V30.1346H18.766V15.9746Z" fill="url(#paint1_radial_44_7739)"/>
<path d="M18.766 15.9746H8.22595V30.1346H18.766V15.9746Z" fill="url(#paint2_radial_44_7739)"/>
<path d="M17.426 5.49533C17.5521 4.91016 17.7958 4.35671 18.1423 3.86856C18.4888 3.38041 18.9308 2.96772 19.4416 2.65553C19.9523 2.34334 20.5212 2.13815 21.1136 2.05241C21.7061 1.96667 22.3097 2.00216 22.8881 2.15674C23.4664 2.31132 24.0073 2.58176 24.4779 2.95166C24.9486 3.32155 25.3392 3.7832 25.6261 4.30859C25.9129 4.83399 26.0901 5.41218 26.1468 6.0081C26.2035 6.60402 26.1386 7.20525 25.956 7.77533L25.216 10.5253C24.9882 11.3773 24.5234 12.1472 23.8756 12.7455C23.2277 13.3438 22.4233 13.746 21.556 13.9053C20.9603 14.0105 20.3488 13.9836 19.7647 13.8263C19.1807 13.6691 18.6383 13.3854 18.176 12.9953C17.5039 12.4254 17.0073 11.6767 16.7435 10.836C16.4798 9.99523 16.4598 9.09695 16.686 8.24533L17.426 5.49533Z" fill="url(#paint3_radial_44_7739)"/>
<path d="M17.426 5.49533C17.5521 4.91016 17.7958 4.35671 18.1423 3.86856C18.4888 3.38041 18.9308 2.96772 19.4416 2.65553C19.9523 2.34334 20.5212 2.13815 21.1136 2.05241C21.7061 1.96667 22.3097 2.00216 22.8881 2.15674C23.4664 2.31132 24.0073 2.58176 24.4779 2.95166C24.9486 3.32155 25.3392 3.7832 25.6261 4.30859C25.9129 4.83399 26.0901 5.41218 26.1468 6.0081C26.2035 6.60402 26.1386 7.20525 25.956 7.77533L25.216 10.5253C24.9882 11.3773 24.5234 12.1472 23.8756 12.7455C23.2277 13.3438 22.4233 13.746 21.556 13.9053C20.9603 14.0105 20.3488 13.9836 19.7647 13.8263C19.1807 13.6691 18.6383 13.3854 18.176 12.9953C17.5039 12.4254 17.0073 11.6767 16.7435 10.836C16.4798 9.99523 16.4598 9.09695 16.686 8.24533L17.426 5.49533Z" fill="url(#paint4_radial_44_7739)"/>
<path d="M17.426 5.49533C17.5521 4.91016 17.7958 4.35671 18.1423 3.86856C18.4888 3.38041 18.9308 2.96772 19.4416 2.65553C19.9523 2.34334 20.5212 2.13815 21.1136 2.05241C21.7061 1.96667 22.3097 2.00216 22.8881 2.15674C23.4664 2.31132 24.0073 2.58176 24.4779 2.95166C24.9486 3.32155 25.3392 3.7832 25.6261 4.30859C25.9129 4.83399 26.0901 5.41218 26.1468 6.0081C26.2035 6.60402 26.1386 7.20525 25.956 7.77533L25.216 10.5253C24.9882 11.3773 24.5234 12.1472 23.8756 12.7455C23.2277 13.3438 22.4233 13.746 21.556 13.9053C20.9603 14.0105 20.3488 13.9836 19.7647 13.8263C19.1807 13.6691 18.6383 13.3854 18.176 12.9953C17.5039 12.4254 17.0073 11.6767 16.7435 10.836C16.4798 9.99523 16.4598 9.09695 16.686 8.24533L17.426 5.49533Z" fill="url(#paint5_radial_44_7739)"/>
<g filter="url(#filter0_i_44_7739)">
<path d="M13.8459 19.5556C13.8426 19.0081 13.6632 18.4762 13.3342 18.0385C13.0051 17.6009 12.544 17.2808 12.0189 17.1256C10.2139 16.5816 8.40494 15.9676 7.40594 15.4786C5.21894 14.4086 4.10794 13.0256 4.46794 11.0096C4.75794 9.38057 6.48394 7.65857 10.5459 8.34557L14.2729 12.1356H20.8459C22.7025 12.1356 24.4829 12.8731 25.7957 14.1858C27.1084 15.4986 27.8459 17.2791 27.8459 19.1356V30.1356H13.8459V19.5556Z" fill="url(#paint6_radial_44_7739)"/>
<path d="M13.8459 19.5556C13.8426 19.0081 13.6632 18.4762 13.3342 18.0385C13.0051 17.6009 12.544 17.2808 12.0189 17.1256C10.2139 16.5816 8.40494 15.9676 7.40594 15.4786C5.21894 14.4086 4.10794 13.0256 4.46794 11.0096C4.75794 9.38057 6.48394 7.65857 10.5459 8.34557L14.2729 12.1356H20.8459C22.7025 12.1356 24.4829 12.8731 25.7957 14.1858C27.1084 15.4986 27.8459 17.2791 27.8459 19.1356V30.1356H13.8459V19.5556Z" fill="url(#paint7_radial_44_7739)"/>
<path d="M13.8459 19.5556C13.8426 19.0081 13.6632 18.4762 13.3342 18.0385C13.0051 17.6009 12.544 17.2808 12.0189 17.1256C10.2139 16.5816 8.40494 15.9676 7.40594 15.4786C5.21894 14.4086 4.10794 13.0256 4.46794 11.0096C4.75794 9.38057 6.48394 7.65857 10.5459 8.34557L14.2729 12.1356H20.8459C22.7025 12.1356 24.4829 12.8731 25.7957 14.1858C27.1084 15.4986 27.8459 17.2791 27.8459 19.1356V30.1356H13.8459V19.5556Z" fill="url(#paint8_radial_44_7739)"/>
<path d="M13.8459 19.5556C13.8426 19.0081 13.6632 18.4762 13.3342 18.0385C13.0051 17.6009 12.544 17.2808 12.0189 17.1256C10.2139 16.5816 8.40494 15.9676 7.40594 15.4786C5.21894 14.4086 4.10794 13.0256 4.46794 11.0096C4.75794 9.38057 6.48394 7.65857 10.5459 8.34557L14.2729 12.1356H20.8459C22.7025 12.1356 24.4829 12.8731 25.7957 14.1858C27.1084 15.4986 27.8459 17.2791 27.8459 19.1356V30.1356H13.8459V19.5556Z" fill="url(#paint9_radial_44_7739)"/>
<path d="M13.8459 19.5556C13.8426 19.0081 13.6632 18.4762 13.3342 18.0385C13.0051 17.6009 12.544 17.2808 12.0189 17.1256C10.2139 16.5816 8.40494 15.9676 7.40594 15.4786C5.21894 14.4086 4.10794 13.0256 4.46794 11.0096C4.75794 9.38057 6.48394 7.65857 10.5459 8.34557L14.2729 12.1356H20.8459C22.7025 12.1356 24.4829 12.8731 25.7957 14.1858C27.1084 15.4986 27.8459 17.2791 27.8459 19.1356V30.1356H13.8459V19.5556Z" fill="url(#paint10_radial_44_7739)"/>
<path d="M13.8459 19.5556C13.8426 19.0081 13.6632 18.4762 13.3342 18.0385C13.0051 17.6009 12.544 17.2808 12.0189 17.1256C10.2139 16.5816 8.40494 15.9676 7.40594 15.4786C5.21894 14.4086 4.10794 13.0256 4.46794 11.0096C4.75794 9.38057 6.48394 7.65857 10.5459 8.34557L14.2729 12.1356H20.8459C22.7025 12.1356 24.4829 12.8731 25.7957 14.1858C27.1084 15.4986 27.8459 17.2791 27.8459 19.1356V30.1356H13.8459V19.5556Z" fill="url(#paint11_radial_44_7739)"/>
</g>
<g filter="url(#filter1_i_44_7739)">
<path d="M17.846 5.4949C17.7368 4.89369 17.5043 4.32163 17.1629 3.81485C16.8215 3.30807 16.3787 2.87758 15.8626 2.55055C15.3464 2.22353 14.7681 2.00708 14.164 1.91487C13.56 1.82267 12.9434 1.8567 12.3532 2.01483C11.7629 2.17297 11.2119 2.45176 10.7349 2.83361C10.2579 3.21545 9.86518 3.69206 9.58166 4.23334C9.29813 4.77461 9.12991 5.3688 9.08762 5.97837C9.04534 6.58794 9.1299 7.19966 9.33597 7.7749L10.076 10.5249C10.3048 11.3763 10.7699 12.1456 11.4176 12.7437C12.0653 13.3419 12.8691 13.7444 13.736 13.9049C14.3332 14.0093 14.946 13.9819 15.5316 13.8247C16.1172 13.6676 16.6613 13.3843 17.126 12.9949C17.7972 12.4246 18.2927 11.6754 18.5547 10.8345C18.8167 9.99357 18.8345 9.09553 18.606 8.2449L17.846 5.4949Z" fill="url(#paint12_radial_44_7739)"/>
</g>
<path d="M6.9739 15.2559L5.3659 21.5659C5.19699 22.2064 5.17861 22.8773 5.31219 23.5262C5.44577 24.175 5.7277 24.7841 6.1359 25.3059C6.54163 25.8289 7.06165 26.2523 7.65616 26.5435C8.25067 26.8346 8.90391 26.986 9.5659 26.9859H17.5659C18.1452 26.986 18.7013 26.7586 19.1146 26.3528C19.528 25.9469 19.7654 25.395 19.7759 24.8159C19.7759 24.5195 19.7174 24.2261 19.6037 23.9525C19.49 23.6789 19.3233 23.4304 19.1134 23.2213C18.9034 23.0123 18.6541 22.8467 18.38 22.7343C18.1059 22.6218 17.8122 22.5645 17.5159 22.5659H9.8459C9.82233 22.5667 9.7989 22.562 9.77749 22.5521C9.75609 22.5422 9.73732 22.5274 9.72271 22.5089C9.7081 22.4904 9.69805 22.4687 9.69339 22.4456C9.68874 22.4225 9.68959 22.3986 9.6959 22.3759L11.2009 16.8749C9.6839 16.3989 8.2529 15.8949 7.4049 15.4789C7.25992 15.4078 7.11555 15.3334 6.9739 15.2559Z" fill="#21182E"/>
<path d="M6.9739 15.2559L5.3659 21.5659C5.19699 22.2064 5.17861 22.8773 5.31219 23.5262C5.44577 24.175 5.7277 24.7841 6.1359 25.3059C6.54163 25.8289 7.06165 26.2523 7.65616 26.5435C8.25067 26.8346 8.90391 26.986 9.5659 26.9859H17.5659C18.1452 26.986 18.7013 26.7586 19.1146 26.3528C19.528 25.9469 19.7654 25.395 19.7759 24.8159C19.7759 24.5195 19.7174 24.2261 19.6037 23.9525C19.49 23.6789 19.3233 23.4304 19.1134 23.2213C18.9034 23.0123 18.6541 22.8467 18.38 22.7343C18.1059 22.6218 17.8122 22.5645 17.5159 22.5659H9.8459C9.82233 22.5667 9.7989 22.562 9.77749 22.5521C9.75609 22.5422 9.73732 22.5274 9.72271 22.5089C9.7081 22.4904 9.69805 22.4687 9.69339 22.4456C9.68874 22.4225 9.68959 22.3986 9.6959 22.3759L11.2009 16.8749C9.6839 16.3989 8.2529 15.8949 7.4049 15.4789C7.25992 15.4078 7.11555 15.3334 6.9739 15.2559Z" fill="url(#paint13_radial_44_7739)"/>
<path d="M6.9739 15.2559L5.3659 21.5659C5.19699 22.2064 5.17861 22.8773 5.31219 23.5262C5.44577 24.175 5.7277 24.7841 6.1359 25.3059C6.54163 25.8289 7.06165 26.2523 7.65616 26.5435C8.25067 26.8346 8.90391 26.986 9.5659 26.9859H17.5659C18.1452 26.986 18.7013 26.7586 19.1146 26.3528C19.528 25.9469 19.7654 25.395 19.7759 24.8159C19.7759 24.5195 19.7174 24.2261 19.6037 23.9525C19.49 23.6789 19.3233 23.4304 19.1134 23.2213C18.9034 23.0123 18.6541 22.8467 18.38 22.7343C18.1059 22.6218 17.8122 22.5645 17.5159 22.5659H9.8459C9.82233 22.5667 9.7989 22.562 9.77749 22.5521C9.75609 22.5422 9.73732 22.5274 9.72271 22.5089C9.7081 22.4904 9.69805 22.4687 9.69339 22.4456C9.68874 22.4225 9.68959 22.3986 9.6959 22.3759L11.2009 16.8749C9.6839 16.3989 8.2529 15.8949 7.4049 15.4789C7.25992 15.4078 7.11555 15.3334 6.9739 15.2559Z" fill="url(#paint14_linear_44_7739)"/>
<g filter="url(#filter2_f_44_7739)">
<path d="M7.03296 22.6672H8.87696L10.033 18.0422L8.47096 17.1982L7.03296 22.6672Z" fill="url(#paint15_linear_44_7739)"/>
</g>
<g filter="url(#filter3_f_44_7739)">
<path d="M8.22595 23.8232H16.94V25.6362H8.22595V23.8232Z" fill="url(#paint16_linear_44_7739)"/>
</g>
<g filter="url(#filter4_i_44_7739)">
<path d="M20.2459 18.475C19.7313 18.4726 19.2336 18.2907 18.8388 17.9606C18.4439 17.6306 18.1766 17.1731 18.083 16.6671C17.9894 16.161 18.0753 15.6382 18.3259 15.1887C18.5766 14.7392 18.9762 14.3913 19.4559 14.205L25.3259 11.945C25.8659 11.762 26.4558 11.7949 26.9722 12.0367C27.4886 12.2785 27.8915 12.7105 28.0968 13.2424C28.3021 13.7744 28.2938 14.3651 28.0738 14.8911C27.8537 15.4171 27.4388 15.8377 26.9159 16.065L21.0459 18.325C20.7909 18.425 20.5199 18.475 20.2459 18.475Z" fill="url(#paint17_radial_44_7739)"/>
</g>
<defs>
<filter id="filter0_i_44_7739" x="4.40112" y="8.09043" width="23.5448" height="22.0453" filterUnits="userSpaceOnUse" color-interpolation-filters="sRGB">
<feFlood flood-opacity="0" result="BackgroundImageFix"/>
<feBlend mode="normal" in="SourceGraphic" in2="BackgroundImageFix" result="shape"/>
<feColorMatrix in="SourceAlpha" type="matrix" values="0 0 0 0 0 0 0 0 0 0 0 0 0 0 0 0 0 0 127 0" result="hardAlpha"/>
<feOffset dx="0.1" dy="-0.1"/>
<feGaussianBlur stdDeviation="0.15"/>
<feComposite in2="hardAlpha" operator="arithmetic" k2="-1" k3="1"/>
<feColorMatrix type="matrix" values="0 0 0 0 0.537255 0 0 0 0 0.384314 0 0 0 0 0.745098 0 0 0 1 0"/>
<feBlend mode="normal" in2="shape" result="effect1_innerShadow_44_7739"/>
</filter>
<filter id="filter1_i_44_7739" x="9.07703" y="1.61426" width="9.68811" height="12.3525" filterUnits="userSpaceOnUse" color-interpolation-filters="sRGB">
<feFlood flood-opacity="0" result="BackgroundImageFix"/>
<feBlend mode="normal" in="SourceGraphic" in2="BackgroundImageFix" result="shape"/>
<feColorMatrix in="SourceAlpha" type="matrix" values="0 0 0 0 0 0 0 0 0 0 0 0 0 0 0 0 0 0 127 0" result="hardAlpha"/>
<feOffset dy="-0.25"/>
<feGaussianBlur stdDeviation="0.5"/>
<feComposite in2="hardAlpha" operator="arithmetic" k2="-1" k3="1"/>
<feColorMatrix type="matrix" values="0 0 0 0 0.27451 0 0 0 0 0.12549 0 0 0 0 0.4 0 0 0 1 0"/>
<feBlend mode="normal" in2="shape" result="effect1_innerShadow_44_7739"/>
</filter>
<filter id="filter2_f_44_7739" x="6.53296" y="16.6982" width="4" height="6.46875" filterUnits="userSpaceOnUse" color-interpolation-filters="sRGB">
<feFlood flood-opacity="0" result="BackgroundImageFix"/>
<feBlend mode="normal" in="SourceGraphic" in2="BackgroundImageFix" result="shape"/>
<feGaussianBlur stdDeviation="0.25" result="effect1_foregroundBlur_44_7739"/>
</filter>
<filter id="filter3_f_44_7739" x="7.22595" y="22.8232" width="10.714" height="3.81348" filterUnits="userSpaceOnUse" color-interpolation-filters="sRGB">
<feFlood flood-opacity="0" result="BackgroundImageFix"/>
<feBlend mode="normal" in="SourceGraphic" in2="BackgroundImageFix" result="shape"/>
<feGaussianBlur stdDeviation="0.5" result="effect1_foregroundBlur_44_7739"/>
</filter>
<filter id="filter4_i_44_7739" x="18.0461" y="11.3281" width="10.1989" height="7.14648" filterUnits="userSpaceOnUse" color-interpolation-filters="sRGB">
<feFlood flood-opacity="0" result="BackgroundImageFix"/>
<feBlend mode="normal" in="SourceGraphic" in2="BackgroundImageFix" result="shape"/>
<feColorMatrix in="SourceAlpha" type="matrix" values="0 0 0 0 0 0 0 0 0 0 0 0 0 0 0 0 0 0 127 0" result="hardAlpha"/>
<feOffset dy="-0.5"/>
<feGaussianBlur stdDeviation="0.5"/>
<feComposite in2="hardAlpha" operator="arithmetic" k2="-1" k3="1"/>
<feColorMatrix type="matrix" values="0 0 0 0 0.254902 0 0 0 0 0.164706 0 0 0 0 0.34902 0 0 0 1 0"/>
<feBlend mode="normal" in2="shape" result="effect1_innerShadow_44_7739"/>
</filter>
<radialGradient id="paint0_radial_44_7739" cx="0" cy="0" r="1" gradientUnits="userSpaceOnUse" gradientTransform="translate(13.908 19.3846) rotate(92.1968) scale(10.7579 8.00765)">
<stop offset="0.194" stop-color="#392B4B"/>
<stop offset="1" stop-color="#3D3746"/>
</radialGradient>
<radialGradient id="paint1_radial_44_7739" cx="0" cy="0" r="1" gradientUnits="userSpaceOnUse" gradientTransform="translate(14.033 27.3226) rotate(103.134) scale(5.7761 2.55226)">
<stop offset="0.468" stop-color="#31253E"/>
<stop offset="1" stop-color="#31253E" stop-opacity="0"/>
</radialGradient>
<radialGradient id="paint2_radial_44_7739" cx="0" cy="0" r="1" gradientUnits="userSpaceOnUse" gradientTransform="translate(10.408 18.1346) rotate(102.473) scale(6.94517 2.35519)">
<stop stop-color="#1C0C30"/>
<stop offset="1" stop-color="#1C0C30" stop-opacity="0"/>
</radialGradient>
<radialGradient id="paint3_radial_44_7739" cx="0" cy="0" r="1" gradientUnits="userSpaceOnUse" gradientTransform="translate(25.2833 4.44923) rotate(140.864) scale(8.21893 7.91903)">
<stop offset="0.132" stop-color="#A38AD0"/>
<stop offset="0.926" stop-color="#674E8D"/>
</radialGradient>
<radialGradient id="paint4_radial_44_7739" cx="0" cy="0" r="1" gradientUnits="userSpaceOnUse" gradientTransform="translate(17.4088 12.9481) rotate(-69.102) scale(5.51932 10.3111)">
<stop offset="0.174" stop-color="#441F6B"/>
<stop offset="1" stop-color="#614489" stop-opacity="0"/>
</radialGradient>
<radialGradient id="paint5_radial_44_7739" cx="0" cy="0" r="1" gradientUnits="userSpaceOnUse" gradientTransform="translate(18.69 11.1673) rotate(-51.4908) scale(11.1421 10.8688)">
<stop offset="0.793" stop-color="#947CBE" stop-opacity="0"/>
<stop offset="1" stop-color="#947CBE"/>
</radialGradient>
<radialGradient id="paint6_radial_44_7739" cx="0" cy="0" r="1" gradientUnits="userSpaceOnUse" gradientTransform="translate(26.0332 13.9476) rotate(128.104) scale(15.091 16.1232)">
<stop stop-color="#9F85CB"/>
<stop offset="1" stop-color="#7854B0"/>
</radialGradient>
<radialGradient id="paint7_radial_44_7739" cx="0" cy="0" r="1" gradientUnits="userSpaceOnUse" gradientTransform="translate(11.8769 10.2916) rotate(-158.074) scale(5.62566 3.48168)">
<stop stop-color="#8E76B7"/>
<stop offset="1" stop-color="#8E76B7" stop-opacity="0"/>
</radialGradient>
<radialGradient id="paint8_radial_44_7739" cx="0" cy="0" r="1" gradientUnits="userSpaceOnUse" gradientTransform="translate(11.5411 10.9472) rotate(-153.688) scale(3.9481 0.22725)">
<stop stop-color="#937FB7"/>
<stop offset="1" stop-color="#937FB7" stop-opacity="0"/>
</radialGradient>
<radialGradient id="paint9_radial_44_7739" cx="0" cy="0" r="1" gradientUnits="userSpaceOnUse" gradientTransform="translate(4.39994 14.4166) rotate(22.8726) scale(13.5071 2.73849)">
<stop stop-color="#7247AD"/>
<stop offset="1" stop-color="#7247AD" stop-opacity="0"/>
</radialGradient>
<radialGradient id="paint10_radial_44_7739" cx="0" cy="0" r="1" gradientUnits="userSpaceOnUse" gradientTransform="translate(19.2199 30.1346) rotate(-90) scale(10.9722 4.9375)">
<stop stop-color="#684C8E"/>
<stop offset="1" stop-color="#684C8E" stop-opacity="0"/>
</radialGradient>
<radialGradient id="paint11_radial_44_7739" cx="0" cy="0" r="1" gradientUnits="userSpaceOnUse" gradientTransform="translate(24.0329 30.1346) rotate(-90) scale(13.125 6.25)">
<stop stop-color="#856CAB"/>
<stop offset="1" stop-color="#856CAB" stop-opacity="0"/>
</radialGradient>
<radialGradient id="paint12_radial_44_7739" cx="0" cy="0" r="1" gradientUnits="userSpaceOnUse" gradientTransform="translate(17.533 7.4479) rotate(165.347) scale(7.04152 8.74459)">
<stop offset="0.167" stop-color="#372E42"/>
<stop offset="1" stop-color="#231433"/>
</radialGradient>
<radialGradient id="paint13_radial_44_7739" cx="0" cy="0" r="1" gradientUnits="userSpaceOnUse" gradientTransform="translate(19.1269 24.4169) rotate(152.241) scale(1.34193 1.20075)">
<stop stop-color="#2F2C31"/>
<stop offset="1" stop-color="#2F2C31" stop-opacity="0"/>
</radialGradient>
<linearGradient id="paint14_linear_44_7739" x1="11.5649" y1="27.1979" x2="11.5649" y2="25.5419" gradientUnits="userSpaceOnUse">
<stop stop-color="#3E1958"/>
<stop offset="1" stop-color="#3E1958" stop-opacity="0"/>
</linearGradient>
<linearGradient id="paint15_linear_44_7739" x1="7.78296" y1="22.4792" x2="8.75196" y2="17.9792" gradientUnits="userSpaceOnUse">
<stop stop-color="#27232D"/>
<stop offset="1" stop-color="#27232C"/>
</linearGradient>
<linearGradient id="paint16_linear_44_7739" x1="16.315" y1="25.1352" x2="7.15795" y2="25.1352" gradientUnits="userSpaceOnUse">
<stop offset="0.563" stop-color="#2B292E"/>
<stop offset="1" stop-color="#2B292E" stop-opacity="0"/>
</linearGradient>
<radialGradient id="paint17_radial_44_7739" cx="0" cy="0" r="1" gradientUnits="userSpaceOnUse" gradientTransform="translate(24.845 14.4483) rotate(157.049) scale(6.65155 2.21973)">
<stop offset="0.21" stop-color="#322C38"/>
<stop offset="1" stop-color="#221B29"/>
</radialGradient>
</defs>
</svg>
