<svg width="40" height="40" viewBox="0 0 40 40" fill="none" xmlns="http://www.w3.org/2000/svg">
<g clip-path="url(#clip0_16_3270)">
<circle cx="20" cy="20" r="20" fill="#008080"/>
<path d="M20 29C19.6357 29 19.3301 28.8766 19.0833 28.6297C18.8364 28.3829 18.7134 28.0777 18.7143 27.7143V21.2857H12.2857C11.9214 21.2857 11.6159 21.1623 11.369 20.9154C11.1221 20.6686 10.9991 20.3634 11 20C11 19.6357 11.1234 19.3301 11.3703 19.0833C11.6171 18.8364 11.9223 18.7134 12.2857 18.7143H18.7143V12.2857C18.7143 11.9214 18.8377 11.6159 19.0846 11.369C19.3314 11.1221 19.6366 10.9991 20 11C20.3643 11 20.6699 11.1234 20.9167 11.3703C21.1636 11.6171 21.2866 11.9223 21.2857 12.2857V18.7143H27.7143C28.0786 18.7143 28.3841 18.8377 28.631 19.0846C28.8779 19.3314 29.0009 19.6366 29 20C29 20.3643 28.8766 20.6699 28.6297 20.9167C28.3829 21.1636 28.0777 21.2866 27.7143 21.2857H21.2857V27.7143C21.2857 28.0786 21.1623 28.3841 20.9154 28.631C20.6686 28.8779 20.3634 29.0009 20 29Z" fill="white"/>
</g>
<defs>
<clipPath id="clip0_16_3270">
<rect width="40" height="40" fill="white"/>
</clipPath>
</defs>
</svg>
